# Blender 4.5.1 LTS
# www.blender.org
mtllib boat.mtl
o boat_KASHIRO
v 0.002182 -0.115397 0.900407
v 0.000402 0.084607 1.000000
v 0.002182 -0.115397 -0.900407
v 0.000402 0.148947 -1.000000
v -0.000042 0.081030 0.824630
v -0.000042 0.075803 0.333333
v -0.000042 0.082402 0.000000
v -0.000042 0.090651 -0.333333
v -0.000042 0.145648 -0.757403
v 0.147783 -0.115397 0.824630
v 0.199966 -0.115397 0.333333
v 0.199966 -0.115397 0.000000
v 0.199966 -0.115397 -0.333333
v 0.144112 -0.115397 -0.757403
v 0.144112 0.145648 -0.757403
v 0.199966 0.090651 -0.333333
v 0.199966 0.082402 0.000000
v 0.199966 0.075803 0.333333
v 0.147783 0.081030 0.824630
v -0.000042 0.107148 -0.669924
v 0.158770 -0.115397 -0.669924
v 0.158770 0.107148 -0.669924
v 0.000404 0.070804 -0.227546
v 0.000404 0.070804 -0.427247
v 0.157000 0.070804 -0.227546
v 0.157000 0.070804 -0.427247
s 0
f 19 1 10
f 19 5 2
f 4 9 15
f 22 8 16
f 16 7 17
f 7 18 17
f 3 15 14
f 21 16 13
f 13 17 12
f 12 18 11
f 18 10 11
f 6 19 18
f 14 22 21
f 15 20 22
f 19 2 1
f 22 20 8
f 16 8 7
f 7 6 18
f 3 4 15
f 21 22 16
f 13 16 17
f 12 17 18
f 18 19 10
f 6 5 19
f 14 15 22
f 15 9 20
l 26 24
l 25 26
l 23 25
