# Blender 4.5.1 LTS
# www.blender.org
mtllib pby.mtl
o PLANE
v 0.428517 -0.315077 5.298391
v 0.145390 0.178899 6.197356
v 1.000000 -1.000000 -1.801486
v 0.614447 1.071311 -1.801486
v 0.878489 0.139632 -6.777055
v 0.878489 0.907065 -6.777055
v 1.000000 -0.507186 4.199650
v 0.000000 -1.364360 -1.801486
v 0.000000 1.181107 -1.801486
v 0.000000 -1.171640 4.827945
v 0.000000 0.182722 6.200272
v 0.000000 -0.021170 -7.150168
v 0.000000 1.207462 -6.777055
v 0.000000 0.803829 4.268874
v 0.211358 1.135225 2.939499
v 0.924093 -0.464395 -4.561685
v 1.148163 0.185480 4.268874
v 1.432366 0.175073 -1.801486
v 0.000000 -0.245118 5.983335
v 0.000000 -1.364360 2.812645
v 1.000000 -0.812670 2.812645
v 1.380492 0.175074 2.812645
v 0.974560 0.801641 -1.801486
v 0.979823 0.682396 2.759483
v 1.022352 -0.976904 0.506687
v 1.456198 0.177560 0.506687
v 0.625535 1.066087 0.466066
v 0.000000 -1.465720 0.506687
v 0.000000 1.213146 0.470544
v 0.998005 0.777813 0.478313
v 0.000000 1.503287 -9.620390
v 3.599625 1.426522 -11.342943
v 0.578561 0.573931 -9.981395
v 1.188252 0.158417 -4.561685
v 0.000000 0.374708 -10.052960
v 0.000000 -0.757001 -4.561685
v 0.000000 1.193493 -4.561685
v -0.000379 1.616664 2.587794
v 0.000000 3.886910 -10.951801
v 0.175474 3.706874 -11.824813
v 0.000000 3.852861 -12.841733
v 0.000000 4.337481 -11.835335
v 0.448332 1.104675 0.089694
v 0.228654 1.696168 -0.129239
v -0.000400 1.696168 0.843956
v 0.003257 1.696168 -2.223022
v 0.305808 1.130815 1.047271
v 0.182579 2.295632 0.857160
v 0.299703 1.122076 -1.623610
v 0.165862 1.696168 0.630149
v 0.081045 1.696168 -1.601001
v 0.234776 1.981447 -1.626052
v 0.184950 2.063488 0.694826
v 0.000599 1.177153 -3.119376
v -0.000085 1.196008 1.241221
v 0.000000 2.402499 0.944067
v 0.000000 2.063488 0.806372
v 0.000000 2.071336 -2.486891
v 0.411244 2.096149 -0.025052
v 0.383098 1.118495 0.544146
v 0.424451 2.210453 0.480456
v 0.257448 2.077556 0.384754
v 0.225498 1.696168 0.305703
v 0.000000 2.553399 0.857160
v 0.000000 2.490469 -1.626052
v 12.112944 2.492315 0.616519
v 0.000000 2.713301 -0.025052
v 0.000000 2.685583 0.480456
v 5.919493 2.210453 0.459330
v 5.919493 2.295632 0.836035
v 5.919493 1.981447 -1.647177
v 5.919493 2.096149 -0.046177
v 5.919493 2.071336 -2.508016
v 5.919493 2.402499 0.922942
v 5.919493 2.685583 0.459330
v 5.919493 2.553399 0.836035
v 5.919493 2.490469 -1.647177
v 5.919493 2.713301 -0.046177
v 12.143177 2.593229 -0.054229
v 8.473936 2.218182 0.512041
v 8.473936 2.297908 0.847687
v 8.473936 2.003838 -1.364871
v 8.473936 2.111196 0.061631
v 8.473936 2.087972 -2.131884
v 8.473936 2.397932 0.925122
v 8.473936 2.662893 0.512041
v 8.473936 2.539171 0.847687
v 8.473936 2.480271 -1.364871
v 8.473936 2.688836 0.061631
v 12.143177 2.605242 0.316418
v 12.082708 2.351896 0.316418
v 12.082708 2.183985 -1.228108
v 12.082708 2.268086 -0.054229
v 12.082708 2.249893 -1.859289
v 12.143177 2.441311 -1.228108
v 1.055710 -0.314790 0.241102
v 4.267172 2.269270 0.241102
v 1.130926 -0.407997 0.241102
v 4.342388 2.176063 0.241102
v 1.010711 -0.291470 -1.473987
v 4.239651 2.118112 -1.473987
v 1.082342 -0.387459 -1.473987
v 4.311283 2.022123 -1.473987
v 0.730915 0.792645 4.181365
v 0.666628 0.801678 4.210459
v 0.547361 1.113886 4.052897
v 0.260348 1.331112 -9.721733
v 0.002488 1.533299 -13.054146
v 0.022664 1.429690 -12.922046
v 3.527840 1.470084 -12.248722
v 0.355365 0.407406 5.519399
v 0.000000 0.425227 5.723722
v 0.355365 0.737936 5.519399
v 0.000000 0.755758 5.723722
v 0.434598 0.493631 5.183537
v 0.434598 0.751462 5.183537
v 0.167967 0.424449 5.725028
v 0.167967 0.754979 5.725028
v 0.660415 1.023417 -3.514061
v 0.333812 1.096833 -4.561685
v 0.940939 0.826877 -3.207333
v 1.285468 0.165050 -3.462460
v 1.085258 0.152171 -5.596672
v 0.907300 0.913515 -5.707901
v 0.005599 1.168792 2.939499
v 1.237602 0.902934 -4.565674
v 0.005599 1.177057 2.236089
v 0.211358 1.135225 2.236089
v 0.585215 1.107843 4.023582
v 0.000000 1.177826 2.744927
v 0.633251 1.063854 2.737445
v 0.000000 1.147453 4.111576
v 0.058642 1.143857 4.105289
v 0.051904 0.803661 4.264326
v 0.003325 0.185480 4.268874
v 0.000000 0.152171 -5.596672
s 0
usemtl gray
f 17 1 7
f 10 7 1
f 109 108 110
f 4 120 37
f 22 7 21
f 20 7 10
f 3 36 16
f 1 2 19
f 127 38 128
f 18 30 26
f 16 123 34
f 29 131 27
f 25 20 28
f 26 21 25
f 23 27 30
f 18 121 23
f 30 131 24
f 18 25 3
f 8 25 28
f 9 27 4
f 26 24 22
f 120 6 13
f 12 33 5
f 19 10 1
f 34 122 3
f 39 40 42
f 108 32 110
f 42 40 41
f 52 44 51
f 59 61 62
f 43 63 60
f 49 44 43
f 59 63 44
f 46 52 51
f 46 49 54
f 53 45 50
f 48 57 53
f 47 45 55
f 61 70 48
f 61 53 62
f 62 50 63
f 60 50 47
f 68 76 75
f 64 74 76
f 70 80 81
f 74 81 85
f 78 88 77
f 75 89 78
f 71 84 82
f 67 75 78
f 61 72 69
f 65 78 77
f 52 73 71
f 59 71 72
f 58 77 73
f 48 74 56
f 85 81 66
f 89 95 88
f 89 90 79
f 82 94 92
f 77 84 73
f 69 83 80
f 72 82 83
f 74 87 76
f 19 2 11
f 76 86 75
f 93 95 79
f 91 79 90
f 92 94 95
f 66 91 90
f 81 91 66
f 88 94 84
f 83 91 80
f 83 92 93
f 87 85 66
f 86 66 90
f 97 98 96
f 101 102 100
f 105 129 106
f 17 115 111
f 17 24 104
f 104 24 131
f 109 32 107
f 107 39 31
f 6 31 13
f 6 33 107
f 107 33 109
f 107 108 40
f 40 108 41
f 33 35 109
f 117 2 111
f 116 14 118
f 116 115 104
f 11 117 112
f 121 4 23
f 124 5 6
f 15 38 125
f 128 38 15
f 130 133 129
f 134 132 14
f 123 135 136
f 135 123 17
f 123 16 5
f 16 136 123
f 17 2 1
f 37 9 4
f 4 119 120
f 22 17 7
f 20 21 7
f 3 8 36
f 18 23 30
f 29 130 131
f 25 21 20
f 26 22 21
f 23 4 27
f 18 122 121
f 30 27 131
f 18 26 25
f 8 3 25
f 9 29 27
f 26 30 24
f 13 37 120
f 120 124 6
f 12 35 33
f 3 16 34
f 122 18 3
f 108 107 32
f 52 59 44
f 43 44 63
f 49 51 44
f 59 62 63
f 46 58 52
f 46 51 49
f 53 57 45
f 48 56 57
f 47 50 45
f 61 69 70
f 61 48 53
f 62 53 50
f 60 63 50
f 68 64 76
f 64 56 74
f 70 69 80
f 74 70 81
f 78 89 88
f 75 86 89
f 71 73 84
f 67 68 75
f 61 59 72
f 65 67 78
f 52 58 73
f 59 52 71
f 58 65 77
f 48 70 74
f 89 79 95
f 89 86 90
f 82 84 94
f 77 88 84
f 69 72 83
f 72 71 82
f 74 85 87
f 76 87 86
f 93 92 95
f 91 93 79
f 81 80 91
f 88 95 94
f 83 93 91
f 83 82 92
f 86 87 66
f 97 99 98
f 101 103 102
f 105 104 129
f 111 2 17
f 17 104 115
f 17 22 24
f 109 110 32
f 107 40 39
f 6 107 31
f 6 5 33
f 117 11 2
f 118 113 116
f 116 104 14
f 14 114 118
f 121 119 4
f 124 123 5
f 129 131 130
f 130 132 133
f 133 106 129
f 134 133 132
f 16 36 136
usemtl glass
f 120 119 126
f 122 34 126
f 106 134 105
f 112 118 114
f 104 131 129
f 115 113 111
f 117 113 118
f 34 123 126
f 121 122 126
f 119 121 126
f 123 124 126
f 124 120 126
f 106 133 134
f 112 117 118
f 115 116 113
f 117 111 113
